<?xml version="1.0" encoding="UTF-8"?><svg id="_レイヤー_1" xmlns="http://www.w3.org/2000/svg" viewBox="0 0 536.33 234.65"><defs><style>.cls-1{fill:#fff;}.cls-2{fill:#c9c26e;}</style></defs><g><path class="cls-1" d="m391.45,195.81c5.7.67,11.41,1.32,17.12,1.85,5.25.48,10.51,1.16,15.75,1.11,17.89-.17,33.56-6.27,46.65-18.54,11.76-11.01,18.79-24.71,22.13-40.37,1.75-8.19,2.42-16.5,2.28-24.87-.37-20.84-6.96-39.4-20.43-55.41-1.06-1.25-2.18-2.45-3.21-3.72-.2-.25-.32-.83-.18-1.09,5.97-10.41,11.98-20.81,17.98-31.21.04-.07.12-.1.38-.29,2.21,1.56,4.54,3.09,6.74,4.79,14.33,11.12,24.08,25.59,30.77,42.29,3.76,9.4,6.24,19.14,7.64,29.15,1.2,8.61,1.53,17.25,1.05,25.94-.91,16.22-4.54,31.78-11.61,46.42-13.94,28.83-36.31,47.95-66.86,57.48-7.5,2.34-15.19,3.8-23.02,4.62-8.09.85-16.18.94-24.27.16-12.45-1.2-24.48-4.08-35.8-9.55-.22-.11-.42-.22-.74-.38,1.25-2.18,2.47-4.32,3.69-6.45,4.02-6.99,8.06-13.96,12.06-20.96.46-.81.92-1.08,1.88-.97h0Z"/><path class="cls-1" d="m348.28,121.6c.9,18.42,5.99,35.45,17.21,50.35,1.75,2.33,3.67,4.54,5.54,6.78.42.51.58.9.19,1.56-5.96,10.28-11.9,20.58-17.85,30.87-.09.17-.21.32-.45.66-2.37-1.71-4.76-3.29-6.99-5.08-14.14-11.31-23.58-25.95-30.05-42.65-3.38-8.72-5.63-17.74-7.06-26.98-1.32-8.61-1.74-17.26-1.33-25.93.78-16.74,4.62-32.76,11.88-47.92,9.44-19.69,24.07-34.5,42.62-45.64,12.94-7.77,26.86-12.98,41.68-15.74,7.31-1.36,14.71-2,22.15-1.86,13.14.25,25.78,2.77,37.68,8.54,1.71.84,3.39,1.77,5.22,2.72-5.92,10.25-11.77,20.37-17.62,30.49-3.08-.78-6.1-1.61-9.14-2.33-9.38-2.2-18.89-3.17-28.5-2.28-18.56,1.71-33.92,9.64-45.97,23.92-9.4,11.15-14.91,24.1-17.61,38.35-1.39,7.33-1.96,14.73-1.6,22.17Z"/><path class="cls-1" d="m271.39,53.84v174.98h-38.9c-.13-1.72-.28-3.42-.36-5.12-.07-1.48-.05-2.96-.05-4.44-.04-15.79-.1-31.59-.09-47.38,0-14.4.06-28.79.14-43.18.03-4.99,1.21-9.71,3.72-14.06,10.52-18.25,21.04-36.5,31.59-54.73,1.16-2,2.52-3.87,3.95-6.07h0Z"/><path class="cls-1" d="m232.61,6.93h37.46c-12.45,21.52-24.84,42.96-37.24,64.4-.07-.03-.14-.06-.22-.08V6.93Z"/><path class="cls-1" d="m40.46,196.74c.17.33,1.08.4,1.65.37,5.18-.27,10.35-.59,15.53-.88,6.1-.35,12.21-.5,18.29-1.05,7.34-.68,14.66-1.56,21.96-2.58,6.83-.96,13.34-3.05,19.5-6.18,12.27-6.24,21-15.87,26.63-28.31,6.23-13.75,8.54-28.29,8.24-43.32-.17-8.34-1.38-16.51-3.38-24.59-3.11-12.49-8.85-23.47-18.55-32.13-2.63-2.35-5.51-4.42-8.35-6.68-.43.69-.69,1.09-.92,1.5-11.47,19.91-22.93,39.83-34.4,59.74-15.57,27.03-31.13,54.07-46.74,81.08-.75,1.3.07,2.13.54,3.03h0ZM0,229.65V8.76C0,7.03.67,6.38,2.46,6.38c10.71,0,21.43.01,32.14-.03,6.4-.03,12.79-.28,19.18-.16,10.34.19,20.68.43,31.01.97,12.99.68,25.86,2.29,38.36,6.18,13.64,4.24,26.12,10.62,36.94,20.04,11.49,10.01,19.78,22.26,25.24,36.45,3.28,8.55,5.38,17.4,6.53,26.48.85,6.75,1.3,13.53,1.12,20.32-.42,16.54-2.53,32.81-8.46,48.4-9.17,24.09-25.69,41.25-49.13,51.83-10.36,4.67-21.22,7.7-32.4,9.65-9.53,1.66-19.12,2.61-28.79,2.87-6.46.16-12.94.34-19.41.32-9.31-.03-18.61-.27-27.92-.34-7.31-.06-14.63,0-21.94.04-1.59,0-3.18.16-4.93.25h0ZM90.03,44.92h-55.4v95.6c18.58-32.07,36.97-63.8,55.4-95.6Z"/></g><polyline class="cls-2" points="34.38 44.51 90.38 44.51 34.38 141.51"/></svg>